<svg width="256" height="58" viewBox="0 0 256 58" fill="none" xmlns="http://www.w3.org/2000/svg">
<path d="M0 30.8395H1.67419V20.068H0V18.8013H5.67364C8.14949 18.8013 9.95212 19.6206 9.95212 22.2427V22.318C9.95212 23.5271 9.46935 24.6078 7.94132 25.126C9.87683 25.591 10.6032 26.5787 10.6032 28.3061V28.3814C10.6032 30.8926 8.89357 32.1018 6.2317 32.1018H0V30.8395ZM5.67364 24.6078C7.62686 24.6078 8.37094 23.8991 8.37094 22.2648V22.1895C8.37094 20.6836 7.49842 20.068 5.63821 20.068H3.25537V24.6078H5.67364ZM6.19627 30.8395C8.13177 30.8395 9.02202 29.9847 9.02202 28.3636V28.2883C9.02202 26.6496 8.10963 25.8701 5.97039 25.8701H3.25537V30.8395H6.19627Z" fill="#D9D9D9"/>
<path d="M11.72 32.106V30.8969H13.0797V23.6377H11.6846V22.3709H14.6255V24.2312C15.0905 23.208 16.0782 22.2204 18.1244 22.2026V23.7262C16.0029 23.7085 14.6255 24.3773 14.6255 26.7601V30.8925H16.1136V32.1016H11.72V32.106Z" fill="#D9D9D9"/>
<path d="M18.8809 27.3403V27.1942C18.8809 24.2533 20.7588 22.207 23.4384 22.207C25.6883 22.207 27.8099 23.5668 27.8099 27.0436V27.5441H20.4798C20.555 29.7586 21.6136 30.9855 23.6067 30.9855C25.1126 30.9855 25.9895 30.4274 26.1933 29.2935H27.739C27.4024 31.2468 25.7858 32.2699 23.589 32.2699C20.8341 32.2699 18.8809 30.3388 18.8809 27.3403ZM26.2287 26.2995C26.0781 24.2887 25.0373 23.4915 23.4384 23.4915C21.8572 23.4915 20.7942 24.5722 20.5373 26.2995H26.2287Z" fill="#D9D9D9"/>
<path d="M28.9085 32.106V30.8969H30.2682V23.6376H28.873V22.3709H31.8139V24.0097C32.2613 23.0973 33.3198 22.207 34.8656 22.207C36.8188 22.207 38.2538 23.2479 38.2538 26.0603V30.8969H39.6135V32.106H35.3173V30.8969H36.7125V25.9452C36.7125 24.3064 35.9684 23.5446 34.4625 23.5446C33.0851 23.5446 31.8228 24.457 31.8228 26.1666V30.8924H33.218V32.1016H28.9085V32.106Z" fill="#D9D9D9"/>
<path d="M46.2612 30.5957V32.1016H44.8838V28.0269H46.2612C46.5757 29.7011 47.7671 31.0032 49.8133 31.0032C51.4521 31.0032 52.679 29.9978 52.679 28.5672C52.679 27.0613 51.9925 26.2597 49.5919 25.8699C46.93 25.4403 45.0875 24.457 45.0875 22.1495C45.0875 20.028 46.7263 18.6328 49.1446 18.6328C50.9871 18.6328 51.8596 19.3016 52.2892 20.0855V18.8011H53.6489V22.3178H52.3291C51.9925 20.8651 50.8985 19.8995 49.2021 19.8995C47.5855 19.8995 46.5978 20.7012 46.5978 21.9856C46.5978 23.2125 47.2843 23.9964 49.8532 24.4393C52.679 24.9221 54.2424 25.8921 54.2424 28.4388C54.2424 30.7065 52.3822 32.2699 49.7956 32.2699C48.1214 32.2699 46.837 31.6764 46.2612 30.5957Z" fill="#D9D9D9"/>
<path d="M63.229 22.3753H64.5887V25.6706H63.2688C62.9322 24.3684 62.042 23.4915 60.3855 23.4915C58.6183 23.4915 57.2586 24.9043 57.2586 27.1942V27.3448C57.2586 29.7276 58.5607 30.9899 60.4387 30.9899C61.8161 30.9899 63.0607 30.1882 63.229 28.607H64.6596C64.4558 30.7108 62.7639 32.2743 60.4165 32.2743C57.7015 32.2743 55.6553 30.3565 55.6553 27.3448V27.1942C55.6553 24.2178 57.7768 22.207 60.3811 22.207C62.0198 22.207 62.8348 22.8581 63.229 23.6376V22.3753Z" fill="#D9D9D9"/>
<path d="M65.8694 32.1058V30.8967H67.2291V18.9869H65.834V17.7202H68.7749V24.0095C69.2222 23.0971 70.2808 22.2069 71.8265 22.2069C73.7797 22.2069 75.2103 23.2477 75.2103 26.0602V30.8967H76.5701V32.1058H72.2739V30.8967H73.669V25.945C73.669 24.3062 72.9249 23.5444 71.419 23.5444C70.0416 23.5444 68.7793 24.4568 68.7793 26.1665V30.8923H70.1745V32.1014H65.8694V32.1058Z" fill="#D9D9D9"/>
<path d="M77.4023 27.3226V27.1721C77.4023 24.2489 79.4309 22.2026 82.1857 22.2026C84.9406 22.2026 86.9691 24.2312 86.9691 27.1499V27.3005C86.9691 30.2414 84.9406 32.2699 82.168 32.2699C79.391 32.2699 77.4023 30.1705 77.4023 27.3226ZM85.3658 27.3226V27.1942C85.3658 24.9442 84.1168 23.4915 82.1857 23.4915C80.2325 23.4915 79.0057 24.9442 79.0057 27.1765V27.3271C79.0057 29.5416 80.2148 30.9943 82.1857 30.9943C84.139 30.9899 85.3658 29.5195 85.3658 27.3226Z" fill="#D9D9D9"/>
<path d="M88.1914 27.3226V27.1721C88.1914 24.2489 90.2199 22.2026 92.9748 22.2026C95.7297 22.2026 97.7538 24.2312 97.7538 27.1499V27.3005C97.7538 30.2414 95.7253 32.2699 92.9527 32.2699C90.1845 32.2699 88.1914 30.1705 88.1914 27.3226ZM96.1549 27.3226V27.1942C96.1549 24.9442 94.9059 23.4915 92.9748 23.4915C91.0216 23.4915 89.7947 24.9442 89.7947 27.1765V27.3271C89.7947 29.5416 91.0039 30.9943 92.9748 30.9943C94.928 30.9899 96.1549 29.5195 96.1549 27.3226Z" fill="#D9D9D9"/>
<path d="M98.7776 32.1058V30.8967H100.137V18.9869H98.7422V17.7202H101.701V30.8923H103.061V32.1014H98.7776V32.1058Z" fill="#D9D9D9"/>
<path d="M107.985 27.3226V27.1721C107.985 24.2489 110.014 22.2026 112.769 22.2026C115.524 22.2026 117.548 24.2312 117.548 27.1499V27.3005C117.548 30.2414 115.519 32.2699 112.747 32.2699C109.974 32.2699 107.985 30.1705 107.985 27.3226ZM115.949 27.3226V27.1942C115.949 24.9442 114.7 23.4915 112.769 23.4915C110.816 23.4915 109.589 24.9442 109.589 27.1765V27.3271C109.589 29.5416 110.798 30.9943 112.769 30.9943C114.718 30.9899 115.949 29.5195 115.949 27.3226Z" fill="#D9D9D9"/>
<path d="M118.642 32.1063V30.8971H120.002V23.6777H118.606V22.3756H120.002V20.7944C120.002 18.8235 120.967 17.6675 122.903 17.6675C123.403 17.6675 123.664 17.7251 124.059 17.8535V19.1556C123.78 19.0449 123.39 18.9519 122.96 18.9519C121.955 18.9519 121.547 19.6384 121.547 20.6438V22.3756H123.93V23.6777H121.547V30.8971H123.297V32.1063H118.642Z" fill="#D9D9D9"/>
<path d="M129.022 30.8395H130.697V20.068H129.022V18.8013H138.904V21.906H137.398V20.0636H132.318V24.6388H136.392V23.4474H137.734V27.1501H136.392V25.9586H132.318V30.8351H137.77V28.7002H139.276V32.1062H129.022V30.8395Z" fill="#D9D9D9"/>
<path d="M140.651 32.106V30.8969H142.01V23.6376H140.615V22.3709H143.556V24.0097C144.003 23.0973 145.062 22.207 146.608 22.207C148.561 22.207 149.996 23.2479 149.996 26.0603V30.8969H151.356V32.106H147.06V30.8969H148.455V25.9452C148.455 24.3064 147.711 23.5446 146.205 23.5446C144.827 23.5446 143.565 24.457 143.565 26.1666V30.8924H144.96V32.1016H140.651V32.106Z" fill="#D9D9D9"/>
<path d="M160.594 23.6373L157.56 32.1013H155.682L152.52 23.6373H151.311V22.3706H155.571V23.6373H154.194L156.705 30.653L159.088 23.6373H157.693V22.3706H161.785V23.6373H160.594Z" fill="#D9D9D9"/>
<path d="M162.49 32.1055V30.8964H163.849V23.6371H162.454V22.3704H165.395V30.892H166.79V32.1011H162.49V32.1055ZM163.473 19.3011C163.473 18.7076 163.956 18.2603 164.531 18.2603C165.107 18.2603 165.59 18.7076 165.59 19.3011C165.59 19.8946 165.107 20.3596 164.531 20.3596C163.956 20.3596 163.473 19.899 163.473 19.3011Z" fill="#D9D9D9"/>
<path d="M167.605 32.106V30.8969H168.964V23.6377H167.569V22.3709H170.51V24.2312C170.975 23.208 171.963 22.2204 174.009 22.2026V23.7262C171.888 23.7085 170.51 24.3773 170.51 26.7601V30.8925H171.998V32.1016H167.605V32.106Z" fill="#D9D9D9"/>
<path d="M174.763 27.3226V27.1721C174.763 24.2489 176.791 22.2026 179.546 22.2026C182.301 22.2026 184.325 24.2312 184.325 27.1499V27.3005C184.325 30.2414 182.297 32.2699 179.524 32.2699C176.756 32.2699 174.763 30.1705 174.763 27.3226ZM182.726 27.3226V27.1942C182.726 24.9442 181.477 23.4915 179.546 23.4915C177.593 23.4915 176.366 24.9442 176.366 27.1765V27.3271C176.366 29.5416 177.575 30.9943 179.546 30.9943C181.499 30.9899 182.726 29.5195 182.726 27.3226Z" fill="#D9D9D9"/>
<path d="M185.441 32.106V30.8969H186.8V23.6376H185.405V22.3709H188.346V24.0097C188.794 23.0973 189.852 22.207 191.398 22.207C193.351 22.207 194.786 23.2479 194.786 26.0603V30.8969H196.146V32.106H191.85V30.8969H193.245V25.9452C193.245 24.3064 192.501 23.5446 190.995 23.5446C189.617 23.5446 188.355 24.457 188.355 26.1666V30.8924H189.75V32.1016H185.441V32.106Z" fill="#D9D9D9"/>
<path d="M196.956 32.106V30.8969H198.316V23.6377H196.921V22.3709H199.862V23.9698C200.252 23.0397 201.315 22.2026 202.71 22.2026C203.954 22.2026 205.053 22.7253 205.558 24.1736C206.209 22.8138 207.568 22.2026 208.778 22.2026C210.527 22.2026 211.997 23.2435 211.997 26.0736V30.8925H213.357V32.1016H209.052V30.8925H210.447V25.9629C210.447 24.2489 209.778 23.5446 208.436 23.5446C207.17 23.5446 205.925 24.3995 205.925 26.1489V30.8925H207.32V32.1016H202.984V30.8925H204.379V25.9629C204.379 24.2489 203.711 23.5446 202.369 23.5446C201.102 23.5446 199.857 24.3995 199.857 26.1489V30.8925H201.253V32.1016H196.956V32.106Z" fill="#D9D9D9"/>
<path d="M214.181 27.3403V27.1942C214.181 24.2533 216.059 22.207 218.738 22.207C220.988 22.207 223.11 23.5668 223.11 27.0436V27.5441H215.784C215.859 29.7586 216.918 30.9855 218.911 30.9855C220.417 30.9855 221.294 30.4274 221.497 29.2935H223.043C222.707 31.2468 221.09 32.2699 218.893 32.2699C216.134 32.2699 214.181 30.3388 214.181 27.3403ZM221.533 26.2995C221.382 24.2887 220.342 23.4915 218.743 23.4915C217.161 23.4915 216.098 24.5722 215.842 26.2995H221.533Z" fill="#D9D9D9"/>
<path d="M224.208 32.106V30.8969H225.568V23.6376H224.173V22.3709H227.114V24.0097C227.561 23.0973 228.62 22.207 230.165 22.207C232.119 22.207 233.554 23.2479 233.554 26.0603V30.8969H234.913V32.106H230.617V30.8969H232.012V25.9452C232.012 24.3064 231.268 23.5446 229.762 23.5446C228.385 23.5446 227.123 24.457 227.123 26.1666V30.8924H228.518V32.1016H224.208V32.106Z" fill="#D9D9D9"/>
<path d="M236.654 29.6654V23.6773H235.259V22.3752H236.654V20.1606H238.2V22.3752H240.711V23.6773H238.2V29.5193C238.2 30.4494 238.629 30.9321 239.595 30.9321C239.985 30.9321 240.414 30.8568 240.862 30.7107V32.0128C240.436 32.1413 240.024 32.2343 239.466 32.2343C237.509 32.2343 236.654 31.1935 236.654 29.6654Z" fill="#D9D9D9"/>
<path d="M245.06 32.2695C243.293 32.2695 241.897 31.3969 241.897 29.4039C241.897 27.1362 244.24 26.3877 246.699 26.3877H248.058V25.679C248.058 24.0402 247.407 23.4822 246.012 23.4822C244.71 23.4822 244.001 23.965 243.855 25.2317H242.309C242.495 22.9418 244.245 22.1978 246.087 22.1978C247.912 22.1978 249.604 22.8665 249.604 25.679V30.8876H250.906V32.0967H248.058V30.7591C247.407 31.769 246.459 32.2695 245.06 32.2695ZM248.058 28.6996V27.4905H246.756C244.838 27.4905 243.443 27.991 243.443 29.4083C243.443 30.2808 243.891 31.047 245.21 31.047C246.809 31.0426 248.058 30.2055 248.058 28.6996Z" fill="#D9D9D9"/>
<path d="M251.722 32.1058V30.8967H253.082V18.9869H251.687V17.7202H254.645V30.8923H256V32.1014H251.722V32.1058Z" fill="#D9D9D9"/>
<path d="M1.78467 52.7412V54.2471H0.407227V50.1724H1.78467C2.09913 51.8466 3.29055 53.1487 5.33678 53.1487C6.97554 53.1487 8.20239 52.1433 8.20239 50.7127C8.20239 49.2068 7.51589 48.4052 5.11533 48.0154C2.45346 47.5858 0.610964 46.6025 0.610964 44.295C0.610964 42.1735 2.24972 40.7783 4.66799 40.7783C6.51049 40.7783 7.38301 41.4471 7.81263 42.2311V40.9466H9.17236V44.4633H7.8525C7.51589 43.0106 6.42191 42.045 4.72557 42.045C3.10453 42.045 2.12128 42.8467 2.12128 44.1311C2.12128 45.358 2.80778 46.1419 5.37664 46.5848C8.20682 47.0676 9.76585 48.0376 9.76585 50.5843C9.76585 52.852 7.90564 54.4154 5.31907 54.4154C3.64488 54.4154 2.36045 53.8219 1.78467 52.7412Z" fill="#D9D9D9"/>
<path d="M18.7524 44.5208H20.1121V47.8161H18.7923C18.4557 46.5139 17.5654 45.637 15.909 45.637C14.1418 45.637 12.782 47.0498 12.782 49.3397V49.4903C12.782 51.8731 14.0842 53.1354 15.9621 53.1354C17.3395 53.1354 18.5841 52.3337 18.7524 50.7525H20.183C19.9793 52.8564 18.2829 54.4198 15.94 54.4198C13.2249 54.4198 11.1787 52.502 11.1787 49.4903V49.3397C11.1787 46.3633 13.3002 44.3525 15.9045 44.3525C17.5433 44.3525 18.3582 45.0036 18.7524 45.7831V44.5208Z" fill="#D9D9D9"/>
<path d="M21.4847 54.2515V53.0424H22.8444V45.7876H21.4492V44.5209H24.3901V53.0424H25.7853V54.2515H21.4847ZM22.4723 41.4471C22.4723 40.8536 22.9551 40.4062 23.5309 40.4062C24.1067 40.4062 24.5894 40.8536 24.5894 41.4471C24.5894 42.0406 24.1067 42.5056 23.5309 42.5056C22.9551 42.5101 22.4723 42.045 22.4723 41.4471Z" fill="#D9D9D9"/>
<path d="M26.7119 49.4859V49.3353C26.7119 46.3944 28.5898 44.3481 31.2694 44.3481C33.5194 44.3481 35.6409 45.7079 35.6409 49.1847V49.6852H28.3108C28.3861 51.8997 29.4447 53.1266 31.4377 53.1266C32.9436 53.1266 33.8206 52.5685 34.0243 51.4347H35.5701C35.2334 53.3879 33.6168 54.411 31.42 54.411C28.6651 54.4154 26.7119 52.4844 26.7119 49.4859ZM34.0597 48.445C33.9092 46.4342 32.8683 45.637 31.2694 45.637C29.6882 45.637 28.6297 46.7177 28.3684 48.445H34.0597Z" fill="#D9D9D9"/>
<path d="M36.7395 54.2515V53.0423H38.0993V45.7875H36.7041V44.5208H39.645V46.1596C40.0923 45.2472 41.1509 44.3569 42.6966 44.3569C44.6499 44.3569 46.0804 45.3978 46.0804 48.2102V53.0468H47.4402V54.2559H43.144V53.0468H44.5391V48.0995C44.5391 46.4607 43.795 45.6989 42.2892 45.6989C40.9117 45.6989 39.6494 46.6113 39.6494 48.321V53.0468H41.0446V54.2559H36.7395V54.2515Z" fill="#D9D9D9"/>
<path d="M55.8462 44.5208H57.2059V47.8161H55.886C55.5494 46.5139 54.6592 45.637 53.0027 45.637C51.2355 45.637 49.8758 47.0498 49.8758 49.3397V49.4903C49.8758 51.8731 51.1779 53.1354 53.0559 53.1354C54.4333 53.1354 55.6779 52.3337 55.8462 50.7525H57.2768C57.073 52.8564 55.3767 54.4198 53.0337 54.4198C50.3187 54.4198 48.2725 52.502 48.2725 49.4903V49.3397C48.2725 46.3633 50.394 44.3525 52.9983 44.3525C54.637 44.3525 55.452 45.0036 55.8462 45.7831V44.5208Z" fill="#D9D9D9"/>
<path d="M58.5967 49.4859V49.3353C58.5967 46.3944 60.4746 44.3481 63.1542 44.3481C65.4042 44.3481 67.5257 45.7079 67.5257 49.1847V49.6852H60.1956C60.2709 51.8997 61.3294 53.1266 63.3225 53.1266C64.8284 53.1266 65.7053 52.5685 65.9091 51.4347H67.4548C67.1182 53.3879 65.5016 54.411 63.3048 54.411C60.5499 54.4154 58.5967 52.4844 58.5967 49.4859ZM65.9445 48.445C65.7939 46.4342 64.7531 45.637 63.1542 45.637C61.573 45.637 60.5145 46.7177 60.2531 48.445H65.9445Z" fill="#D9D9D9"/>
<path d="M77.1807 54.3797C74.7447 54.3797 72.9775 52.927 72.9775 50.7346C72.9775 48.6308 74.3151 47.5722 76.0292 46.7351C75.2497 45.7297 74.8555 44.8174 74.8555 43.9271C74.8555 41.9163 76.4366 40.8755 78.1108 40.8755C79.785 40.8755 81.034 42.0093 81.034 43.6082C81.034 45.2248 79.8603 46.3232 78.1684 47.0496L80.9587 50.4556L82.5399 47.3862H84.4754V48.5954H83.3416L81.8357 51.5363L83.0625 53.0421H84.2894V54.2513H82.1856L80.8657 52.6524C80.0242 53.6179 78.8549 54.3797 77.1807 54.3797ZM80.0641 51.6647L76.7511 47.6254C75.449 48.2587 74.5366 49.0205 74.5366 50.584C74.5366 52.1829 75.5597 53.113 77.2339 53.113C78.2969 53.113 79.2624 52.6302 80.0641 51.6647ZM77.4952 46.1948C78.9834 45.526 79.5591 44.8572 79.5591 43.5728C79.5591 42.718 78.9435 42.0846 78.0533 42.0846C77.1231 42.0846 76.3436 42.6427 76.3436 43.9448C76.3436 44.6136 76.7688 45.2824 77.4952 46.1948Z" fill="#D9D9D9"/>
<path d="M94.4801 54.2512H89.6436V52.9845H91.3177V42.213H89.6436V40.9463H93.829L97.6823 51.235L101.478 40.9463H105.57V42.213H103.896V52.9845H105.57V54.2512H100.601V52.9845H102.275V42.6382L97.8639 54.2468H97.3634L92.8059 42.6382V52.9845H94.4801V54.2512Z" fill="#D9D9D9"/>
<path d="M109.735 54.4155C107.967 54.4155 106.572 53.5429 106.572 51.5498C106.572 49.2822 108.915 48.5337 111.373 48.5337H112.733V47.825C112.733 46.1862 112.082 45.6282 110.687 45.6282C109.385 45.6282 108.676 46.1109 108.53 47.3777H106.984C107.17 45.0878 108.92 44.3438 110.762 44.3438C112.587 44.3438 114.279 45.0125 114.279 47.825V53.0336H115.581V54.2427H112.733V52.9051C112.078 53.915 111.13 54.4155 109.735 54.4155ZM112.729 50.8456V49.6365H111.427C109.509 49.6365 108.114 50.137 108.114 51.5543C108.114 52.4268 108.561 53.193 109.881 53.193C111.48 53.1886 112.729 52.3515 112.729 50.8456Z" fill="#D9D9D9"/>
<path d="M116.392 54.2515V53.0423H117.752V45.7875H116.356V44.5208H119.297V46.1596C119.745 45.2472 120.803 44.3569 122.349 44.3569C124.302 44.3569 125.737 45.3978 125.737 48.2102V53.0468H127.097V54.2559H122.801V53.0468H124.196V48.0995C124.196 46.4607 123.452 45.6989 121.946 45.6989C120.568 45.6989 119.306 46.6113 119.306 48.321V53.0468H120.701V54.2559H116.392V54.2515Z" fill="#D9D9D9"/>
<path d="M131.198 54.4155C129.431 54.4155 128.036 53.5429 128.036 51.5498C128.036 49.2822 130.379 48.5337 132.837 48.5337H134.197V47.825C134.197 46.1862 133.546 45.6282 132.151 45.6282C130.849 45.6282 130.14 46.1109 129.994 47.3777H128.448C128.634 45.0878 130.384 44.3438 132.226 44.3438C134.051 44.3438 135.743 45.0125 135.743 47.825V53.0336H137.045V54.2427H134.197V52.9051C133.546 53.915 132.594 54.4155 131.198 54.4155ZM134.197 50.8456V49.6365H132.895C130.977 49.6365 129.582 50.137 129.582 51.5543C129.582 52.4268 130.029 53.193 131.349 53.193C132.948 53.1886 134.197 52.3515 134.197 50.8456Z" fill="#D9D9D9"/>
<path d="M138.08 54.8095H139.661C139.883 55.9257 140.813 56.5014 142.469 56.5014C144.387 56.5014 145.596 55.5891 145.596 53.5074V52.0945C145.038 53.0423 143.718 53.937 142.301 53.937C139.75 53.937 137.872 52.0015 137.872 49.3219V49.1935C137.872 46.5538 139.732 44.3569 142.412 44.3569C144.028 44.3569 145.034 45.1364 145.592 46.0887V44.5252H148.458V45.792H147.138V53.6048C147.12 56.435 145.202 57.808 142.487 57.808C139.608 57.8036 138.342 56.4439 138.08 54.8095ZM145.654 49.2068V49.0783C145.654 46.8992 144.463 45.6369 142.567 45.6369C140.631 45.6369 139.48 47.0675 139.48 49.1182V49.2688C139.48 51.3903 140.84 52.657 142.474 52.657C144.277 52.6482 145.654 51.3859 145.654 49.2068Z" fill="#D9D9D9"/>
<path d="M149.242 49.4859V49.3353C149.242 46.3944 151.12 44.3481 153.8 44.3481C156.05 44.3481 158.171 45.7079 158.171 49.1847V49.6852H150.841C150.916 51.8997 151.975 53.1266 153.968 53.1266C155.474 53.1266 156.351 52.5685 156.555 51.4347H158.1C157.764 53.3879 156.147 54.411 153.95 54.411C151.195 54.4154 149.242 52.4844 149.242 49.4859ZM156.594 48.445C156.444 46.4342 155.403 45.637 153.804 45.637C152.223 45.637 151.16 46.7177 150.903 48.445H156.594Z" fill="#D9D9D9"/>
<path d="M159.269 54.2515V53.0424H160.629V45.7876H159.233V44.5208H162.174V46.1197C162.564 45.1896 163.627 44.3525 165.022 44.3525C166.267 44.3525 167.365 44.8752 167.87 46.3235C168.521 44.9637 169.881 44.3525 171.09 44.3525C172.84 44.3525 174.31 45.3934 174.31 48.2235V53.0424H175.67V54.2515H171.373V53.0424H172.769V48.1128C172.769 46.3988 172.1 45.6945 170.758 45.6945C169.491 45.6945 168.247 46.5494 168.247 48.2988V53.0424H169.633V54.2515H165.297V53.0424H166.692V48.1128C166.692 46.3988 166.023 45.6945 164.681 45.6945C163.414 45.6945 162.17 46.5494 162.17 48.2988V53.0424H163.565V54.2515H159.269Z" fill="#D9D9D9"/>
<path d="M176.494 49.4859V49.3353C176.494 46.3944 178.372 44.3481 181.052 44.3481C183.302 44.3481 185.423 45.7079 185.423 49.1847V49.6852H178.093C178.168 51.8997 179.227 53.1266 181.22 53.1266C182.726 53.1266 183.603 52.5685 183.807 51.4347H185.352C185.016 53.3879 183.399 54.411 181.202 54.411C178.447 54.4154 176.494 52.4844 176.494 49.4859ZM183.846 48.445C183.696 46.4342 182.655 45.637 181.056 45.637C179.475 45.637 178.412 46.7177 178.155 48.445H183.846Z" fill="#D9D9D9"/>
<path d="M186.522 54.2515V53.0423H187.881V45.7875H186.486V44.5208H189.427V46.1596C189.875 45.2472 190.933 44.3569 192.479 44.3569C194.432 44.3569 195.867 45.3978 195.867 48.2102V53.0468H197.227V54.2559H192.931V53.0468H194.326V48.0995C194.326 46.4607 193.582 45.6989 192.076 45.6989C190.698 45.6989 189.436 46.6113 189.436 48.321V53.0468H190.831V54.2559H186.522V54.2515Z" fill="#D9D9D9"/>
<path d="M198.967 51.811V45.8184H197.572V44.5163H198.967V42.3018H200.513V44.5163H203.024V45.8184H200.513V51.6604C200.513 52.5905 200.943 53.0733 201.908 53.0733C202.298 53.0733 202.728 52.998 203.175 52.8518V54.1539C202.75 54.2824 202.338 54.3754 201.78 54.3754C199.822 54.3798 198.967 53.339 198.967 51.811Z" fill="#D9D9D9"/>
<path d="M105.606 0.225586H107.218L111.067 9.07044H108.87L108.108 7.19694H104.671L103.936 9.07044H101.788L105.606 0.225586ZM106.354 2.79888L105.278 5.5449H107.44L106.354 2.79888Z" fill="#D9D9D9"/>
<path d="M94.3794 0.225586H97.6791C98.06 0.225586 98.4453 0.25216 98.8351 0.305309C99.2204 0.358458 99.5703 0.469185 99.8759 0.628631C100.186 0.792507 100.434 1.01839 100.624 1.31071C100.815 1.60303 100.912 1.98836 100.912 2.47113C100.912 2.97161 100.775 3.38351 100.496 3.71569C100.217 4.04345 99.8493 4.27819 99.3887 4.41992V4.44649C99.681 4.48635 99.9423 4.57051 100.182 4.69009C100.421 4.80967 100.624 4.96469 100.793 5.15071C100.965 5.33673 101.094 5.55819 101.187 5.80622C101.28 6.05424 101.324 6.32442 101.324 6.60788C101.324 7.07293 101.222 7.46269 101.023 7.77715C100.824 8.08719 100.567 8.33965 100.248 8.53452C99.9291 8.7294 99.5747 8.86228 99.1805 8.94643C98.7864 9.03058 98.3922 9.07044 97.998 9.07044H94.375V0.225586H94.3794ZM96.3282 3.75998H97.7411C97.8917 3.75998 98.0378 3.74227 98.184 3.71127C98.3302 3.68026 98.4586 3.62268 98.5782 3.54739C98.6933 3.4721 98.7864 3.37466 98.8572 3.24621C98.9281 3.1222 98.9635 2.97161 98.9635 2.79445C98.9635 2.61286 98.9237 2.45784 98.8439 2.33825C98.7642 2.21867 98.6623 2.12566 98.5383 2.05922C98.4143 1.99279 98.2726 1.94407 98.1131 1.91749C97.9537 1.88649 97.7987 1.8732 97.6525 1.8732H96.3282V3.75998ZM96.3282 7.4184H98.0777C98.2283 7.4184 98.3789 7.40068 98.5339 7.36968C98.6889 7.33867 98.8262 7.27667 98.9502 7.19694C99.0742 7.11279 99.1761 7.00649 99.2558 6.87362C99.3356 6.74075 99.3754 6.57687 99.3754 6.38642C99.3754 6.17826 99.3223 6.00995 99.2204 5.88151C99.1141 5.75307 98.9857 5.65563 98.8262 5.58919C98.6668 5.52276 98.4985 5.47847 98.3124 5.45189C98.1309 5.42532 97.9581 5.41646 97.7987 5.41646H96.3238V7.4184H96.3282Z" fill="#D9D9D9"/>
<path d="M111.993 0.225586H115.417C115.869 0.225586 116.294 0.269877 116.697 0.358458C117.1 0.447039 117.454 0.593199 117.76 0.796936C118.065 1.00067 118.305 1.27528 118.486 1.62074C118.663 1.96621 118.756 2.39583 118.756 2.91403C118.756 3.53853 118.592 4.07002 118.269 4.5085C117.946 4.94698 117.472 5.22158 116.843 5.34116L119.093 9.07487H116.759L114.912 5.54047H113.951V9.07487H112.002V0.225586H111.993ZM113.942 3.884H115.089C115.262 3.884 115.448 3.87957 115.647 3.86628C115.842 3.85299 116.019 3.81756 116.179 3.75555C116.338 3.69355 116.467 3.59611 116.573 3.46324C116.675 3.33036 116.728 3.14434 116.728 2.90074C116.728 2.67486 116.684 2.4977 116.591 2.36483C116.498 2.23195 116.382 2.13009 116.241 2.05922C116.099 1.98836 115.935 1.93964 115.753 1.91749C115.572 1.89092 115.39 1.88206 115.218 1.88206H113.942V3.884Z" fill="#D9D9D9"/>
<path d="M79.2847 0.225586H80.8968L84.7457 9.07044H82.5489L81.7871 7.19694H78.3501L77.6149 9.07044H75.4668L79.2847 0.225586ZM80.0376 2.79888L78.9613 5.5449H81.1227L80.0376 2.79888Z" fill="#D9D9D9"/>
<path d="M123.62 0.225586H125.232L129.081 9.07044H126.884L126.122 7.19694H122.685L121.95 9.07044H119.802L123.62 0.225586ZM124.373 2.79888L123.296 5.5449H125.458L124.373 2.79888Z" fill="#D9D9D9"/>
<path d="M68.0562 0.221191H71.3558C71.7367 0.221191 72.1221 0.247766 72.5118 0.300915C72.8972 0.354064 73.2471 0.46479 73.5527 0.624237C73.8627 0.788113 74.1107 1.014 74.3012 1.30631C74.4916 1.59863 74.5891 1.98396 74.5891 2.46673C74.5891 2.96722 74.4518 3.37912 74.1727 3.7113C73.8937 4.03905 73.5261 4.27379 73.0655 4.41552V4.4421C73.3578 4.48196 73.6191 4.56611 73.8583 4.6857C74.0974 4.80528 74.3012 4.9603 74.4695 5.14632C74.6422 5.33234 74.7707 5.55379 74.8637 5.80182C74.9567 6.04985 75.001 6.32002 75.001 6.60348C75.001 7.06854 74.8991 7.45829 74.6998 7.77276C74.5005 8.08279 74.2436 8.33525 73.9247 8.53013C73.6102 8.72058 73.2515 8.85788 72.8573 8.94203C72.4631 9.02619 72.0689 9.06605 71.6747 9.06605H68.0518V0.221191H68.0562ZM70.005 3.76002H71.4179C71.5684 3.76002 71.7146 3.7423 71.8608 3.7113C72.0069 3.6803 72.1354 3.62272 72.2549 3.54742C72.3701 3.47213 72.4631 3.37469 72.534 3.24625C72.6048 3.12223 72.6403 2.97164 72.6403 2.79448C72.6403 2.61289 72.6004 2.45787 72.5207 2.33829C72.441 2.2187 72.3391 2.12569 72.2151 2.05926C72.0911 1.99282 71.9493 1.9441 71.7899 1.91753C71.6304 1.88652 71.4754 1.87324 71.3293 1.87324H70.005V3.76002ZM70.005 7.41843H71.7545C71.9051 7.41843 72.0556 7.40072 72.2107 7.36971C72.3657 7.33871 72.503 7.2767 72.627 7.19698C72.751 7.11283 72.8529 7.00653 72.9326 6.87366C73.0123 6.74079 73.0522 6.57691 73.0522 6.38646C73.0522 6.17829 72.999 6.00999 72.8972 5.88154C72.7909 5.7531 72.6624 5.65566 72.503 5.58923C72.3435 5.52279 72.1752 5.4785 71.9892 5.45193C71.8076 5.42535 71.6349 5.41649 71.4754 5.41649H70.0006V7.41843H70.005Z" fill="#D9D9D9"/>
<path d="M85.6719 0.221191H89.0956C89.5473 0.221191 89.9725 0.265482 90.3756 0.354064C90.7786 0.442645 91.1329 0.588804 91.4385 0.792542C91.7441 0.996279 91.9833 1.27088 92.1649 1.61635C92.3421 1.96182 92.4351 2.39144 92.4351 2.90964C92.4351 3.53414 92.2712 4.06562 91.9479 4.5041C91.6246 4.94258 91.1506 5.21718 90.5217 5.33677L92.7717 9.07047H90.4376L88.5818 5.53165H87.6207V9.06604H85.6719V0.221191ZM87.6207 3.88403H88.7678C88.9405 3.88403 89.1266 3.8796 89.3259 3.86632C89.5207 3.85303 89.6979 3.8176 89.8574 3.75559C90.0168 3.69358 90.1452 3.59614 90.2515 3.46327C90.3578 3.3304 90.4066 3.14438 90.4066 2.90078C90.4066 2.6749 90.3623 2.49773 90.2693 2.36486C90.1762 2.23199 90.0611 2.13012 89.9194 2.05926C89.7776 1.98839 89.6138 1.93967 89.4322 1.91753C89.2506 1.89095 89.069 1.88209 88.8962 1.88209H87.6207V3.88403Z" fill="#D9D9D9"/>
<path d="M32.6245 0.225586H34.2367L38.0855 9.07044H35.8887L35.1269 7.19694H31.69L30.9547 9.07044H28.8066L32.6245 0.225586ZM33.373 2.79888L32.2967 5.5449H34.4581L33.373 2.79888Z" fill="#D9D9D9"/>
<path d="M58.8794 0.225586H60.4916L64.3404 9.07044H62.1436L61.3818 7.19694H57.9448L57.2096 9.07044H55.0615L58.8794 0.225586ZM59.6279 2.79888L58.5516 5.5449H60.713L59.6279 2.79888Z" fill="#D9D9D9"/>
<path d="M39.1611 0.221191H41.8097L45.57 6.36874H45.5966V0.221191H47.5454V9.06605H44.9986L41.1365 2.77234H41.1099V9.06605H39.1611V0.221191Z" fill="#D9D9D9"/>
<path d="M51.3457 1.94853H48.9053V0.221191H55.8988V1.94853H53.2945V9.07047H51.3457V1.94853Z" fill="#D9D9D9"/>
<path d="M4.33126 9.20774C2.27617 9.20774 1.11132 8.00746 1.11132 5.82393L1.11575 1.07597H0.110352V0.225586H3.33029V1.07597H2.2053L2.20087 5.69992C2.20087 7.57784 2.86523 8.30421 4.3534 8.30421C5.77956 8.30421 6.63437 7.72843 6.63437 5.53604L6.6388 1.07597H5.50939V0.225586H8.72932V1.07597H7.72835L7.72393 5.68663C7.72393 7.86573 6.63437 9.20774 4.33126 9.20774Z" fill="#D9D9D9"/>
<path d="M16.4895 6.12541C16.2636 7.57814 15.2494 8.3178 13.7833 8.3178C11.8523 8.3178 10.7007 6.94035 10.7007 4.65938V4.56194C10.7007 2.30755 11.9408 0.868098 13.7922 0.868098C15.1563 0.868098 16.0865 1.44388 16.4496 2.93647H17.362V0.230312H16.3876V1.20914C15.9226 0.376471 14.9482 0 13.8188 0C11.3518 0 9.57129 1.91779 9.57129 4.5708V4.67267C9.57129 7.42755 11.1613 9.20804 13.7568 9.20804C15.7277 9.20804 17.1361 8.22478 17.4816 6.2317L16.4895 6.12541Z" fill="#D9D9D9"/>
<path d="M28.2793 6.34682C28.2793 8.02987 26.8531 9.208 24.8158 9.208C23.1814 9.208 22.0122 8.6588 21.3301 7.57368L22.6677 6.43098C22.8847 6.74101 23.6288 7.63568 24.9796 7.63568C25.8256 7.63568 26.3482 7.26807 26.3482 6.679C26.3482 5.93049 25.861 5.76662 24.6297 5.42115C23.1726 5.01367 21.6933 4.38475 21.6933 2.76813C21.6933 1.14267 23.0663 0.00439453 25.0328 0.00439453C25.8212 0.00439453 27.2606 0.190416 28.049 1.41727L26.8088 2.49796C26.3394 1.87789 25.6839 1.57671 24.8158 1.57671C23.9432 1.57671 23.6243 2.1835 23.6243 2.59097C23.6243 3.23762 24.4836 3.51665 25.5244 3.79568C26.8576 4.13672 28.2793 4.65049 28.2793 6.34682Z" fill="#D9D9D9"/>
</svg>
