<svg width="13" height="15" viewBox="0 0 13 15" fill="none" xmlns="http://www.w3.org/2000/svg">
<path d="M4.37879 3C3.9774 3 3.63391 3.14675 3.34831 3.44025C3.06272 3.73375 2.91968 4.087 2.91919 4.5V13.5C2.91919 13.9125 3.06223 14.2655 3.34831 14.559C3.63439 14.8525 3.97789 14.9995 4.37879 15H10.947C11.3484 15 11.6921 14.853 11.9782 14.559C12.2643 14.265 12.4071 13.912 12.4066 13.5V4.5C12.4066 4.0875 12.2638 3.73425 11.9782 3.44025C11.6926 3.14625 11.3488 2.9995 10.947 3H4.37879ZM4.37879 4.5H10.947V13.5H4.37879V4.5ZM1.4596 0C1.05821 0 0.714716 0.146749 0.429121 0.44025C0.143527 0.73375 0.000486532 1.087 0 1.5L0 12H1.4596V1.5H9.48737V0H1.4596Z" fill="white"/>
</svg>
