<svg width="21" height="16" viewBox="0 0 21 16" fill="none" xmlns="http://www.w3.org/2000/svg">
<path d="M3.83662 11H6.83662V9.5H4.33662V6.5H6.83662V5H3.83662C3.55328 5 3.31595 5.096 3.12462 5.288C2.93328 5.48 2.83728 5.71733 2.83662 6V10C2.83662 10.2833 2.93262 10.521 3.12462 10.713C3.31662 10.905 3.55395 11.0007 3.83662 11ZM7.73662 11H10.7366C11.0199 11 11.2576 10.904 11.4496 10.712C11.6416 10.52 11.7373 10.2827 11.7366 10V8.5C11.7366 8.21667 11.6406 7.954 11.4486 7.712C11.2566 7.47 11.0193 7.34933 10.7366 7.35H9.23662V6.5H11.7366V5H8.73662C8.45328 5 8.21595 5.096 8.02462 5.288C7.83328 5.48 7.73728 5.71733 7.73662 6V7.5C7.73662 7.78333 7.83262 8.03767 8.02462 8.263C8.21662 8.48833 8.45395 8.60067 8.73662 8.6H10.2366V9.5H7.73662V11ZM14.3366 11H15.8366L17.5866 5H16.0866L15.0866 8.45L14.0866 5H12.5866L14.3366 11ZM2.08662 16C1.53662 16 1.06595 15.8043 0.674617 15.413C0.283283 15.0217 0.0872832 14.5507 0.0866165 14V2C0.0866165 1.45 0.282617 0.979333 0.674617 0.588C1.06662 0.196666 1.53728 0.000666667 2.08662 0H18.0866C18.6366 0 19.1076 0.196 19.4996 0.588C19.8916 0.98 20.0873 1.45067 20.0866 2V14C20.0866 14.55 19.8909 15.021 19.4996 15.413C19.1083 15.805 18.6373 16.0007 18.0866 16H2.08662Z" fill="black"/>
</svg>
