<svg width="20" height="20" viewBox="0 0 20 20" fill="none" xmlns="http://www.w3.org/2000/svg">
<path d="M4.66667 10.6663H4V9.33301H4.66667C4.84348 9.33301 5.01305 9.40325 5.13807 9.52827C5.2631 9.65329 5.33333 9.82286 5.33333 9.99967C5.33333 10.1765 5.2631 10.3461 5.13807 10.4711C5.01305 10.5961 4.84348 10.6663 4.66667 10.6663ZM9.33333 13.333V9.33301H10C10.1768 9.33301 10.3464 9.40325 10.4714 9.52827C10.5964 9.65329 10.6667 9.82286 10.6667 9.99967V12.6663C10.6667 12.8432 10.5964 13.0127 10.4714 13.1377C10.3464 13.2628 10.1768 13.333 10 13.333H9.33333Z" fill="black"/>
<path fill-rule="evenodd" clip-rule="evenodd" d="M1.33333 2C1.33333 1.46957 1.54404 0.960859 1.91911 0.585786C2.29419 0.210714 2.8029 0 3.33333 0L14.276 0L18.6667 4.39067V18C18.6667 18.5304 18.4559 19.0391 18.0809 19.4142C17.7058 19.7893 17.1971 20 16.6667 20H3.33333C2.8029 20 2.29419 19.7893 1.91911 19.4142C1.54404 19.0391 1.33333 18.5304 1.33333 18V2ZM4.66666 8H2.66666V14.6667H3.99999V12H4.66666C5.19709 12 5.7058 11.7893 6.08088 11.4142C6.45595 11.0391 6.66666 10.5304 6.66666 10C6.66666 9.46957 6.45595 8.96086 6.08088 8.58579C5.7058 8.21071 5.19709 8 4.66666 8ZM10 8H8V14.6667H10C10.5304 14.6667 11.0391 14.456 11.4142 14.0809C11.7893 13.7058 12 13.1971 12 12.6667V10C12 9.46957 11.7893 8.96086 11.4142 8.58579C11.0391 8.21071 10.5304 8 10 8ZM13.3333 14.6667V8H17.3333V9.33333H14.6667V10.6667H16V12H14.6667V14.6667H13.3333Z" fill="black"/>
</svg>
