<svg width="20" height="21" viewBox="0 0 20 21" fill="none" xmlns="http://www.w3.org/2000/svg">
<path d="M0 2.625C0 1.17715 1.15726 0 2.58065 0H9.03226V5.25C9.03226 5.97598 9.60887 6.5625 10.3226 6.5625H15.4839V12.4688H7.09677C5.67339 12.4688 4.51613 13.6459 4.51613 15.0938V21H2.58065C1.15726 21 0 19.8229 0 18.375V2.625ZM15.4839 5.25H10.3226V0L15.4839 5.25ZM7.09677 14.4375H8.3871C9.63306 14.4375 10.6452 15.467 10.6452 16.7344C10.6452 18.0018 9.63306 19.0312 8.3871 19.0312H7.74194V20.3438C7.74194 20.7047 7.45161 21 7.09677 21C6.74194 21 6.45161 20.7047 6.45161 20.3438V18.375V15.0938C6.45161 14.7328 6.74194 14.4375 7.09677 14.4375ZM8.3871 17.7188C8.92339 17.7188 9.35484 17.2799 9.35484 16.7344C9.35484 16.1889 8.92339 15.75 8.3871 15.75H7.74194V17.7188H8.3871ZM12.2581 14.4375H13.5484C14.6169 14.4375 15.4839 15.3193 15.4839 16.4062V19.0312C15.4839 20.1182 14.6169 21 13.5484 21H12.2581C11.9032 21 11.6129 20.7047 11.6129 20.3438V15.0938C11.6129 14.7328 11.9032 14.4375 12.2581 14.4375ZM13.5484 19.6875C13.9032 19.6875 14.1935 19.3922 14.1935 19.0312V16.4062C14.1935 16.0453 13.9032 15.75 13.5484 15.75H12.9032V19.6875H13.5484ZM16.7742 15.0938C16.7742 14.7328 17.0645 14.4375 17.4194 14.4375H19.3548C19.7097 14.4375 20 14.7328 20 15.0938C20 15.4547 19.7097 15.75 19.3548 15.75H18.0645V17.0625H19.3548C19.7097 17.0625 20 17.3578 20 17.7188C20 18.0797 19.7097 18.375 19.3548 18.375H18.0645V20.3438C18.0645 20.7047 17.7742 21 17.4194 21C17.0645 21 16.7742 20.7047 16.7742 20.3438V17.7188V15.0938Z" fill="black"/>
</svg>
