
<svg width="15" height="16" viewBox="0 0 15 16" fill="none" xmlns="http://www.w3.org/2000/svg">
<g clip-path="url(#clip0_66_475)">
<path d="M12.1875 6.5C12.1875 7.93438 11.751 9.25938 11.0156 10.3344L14.7246 14.2938C15.0908 14.6844 15.0908 15.3188 14.7246 15.7094C14.3584 16.1 13.7637 16.1 13.3975 15.7094L9.68848 11.75C8.68066 12.5375 7.43848 13 6.09375 13C2.72754 13 0 10.0906 0 6.5C0 2.90938 2.72754 0 6.09375 0C9.45996 0 12.1875 2.90938 12.1875 6.5ZM6.09375 11C6.64776 11 7.19635 10.8836 7.7082 10.6575C8.22004 10.4313 8.68511 10.0998 9.07686 9.68198C9.4686 9.26412 9.77935 8.76804 9.99137 8.22208C10.2034 7.67611 10.3125 7.09095 10.3125 6.5C10.3125 5.90905 10.2034 5.32389 9.99137 4.77793C9.77935 4.23196 9.4686 3.73588 9.07686 3.31802C8.68511 2.90016 8.22004 2.56869 7.7082 2.34254C7.19635 2.1164 6.64776 2 6.09375 2C5.53974 2 4.99115 2.1164 4.4793 2.34254C3.96746 2.56869 3.50239 2.90016 3.11064 3.31802C2.7189 3.73588 2.40814 4.23196 2.19613 4.77793C1.98412 5.32389 1.875 5.90905 1.875 6.5C1.875 7.09095 1.98412 7.67611 2.19613 8.22208C2.40814 8.76804 2.7189 9.26412 3.11064 9.68198C3.50239 10.0998 3.96746 10.4313 4.4793 10.6575C4.99115 10.8836 5.53974 11 6.09375 11Z" fill="#595959"/>
</g>
<defs>
<clipPath id="clip0_66_475">
<rect width="15" height="16" fill="white"/>
</clipPath>
</defs>
</svg>
